<?xml version="1.0" standalone="no"?>
<!DOCTYPE svg PUBLIC "-//W3C//DTD SVG 20010904//EN"
 "http://www.w3.org/TR/2001/REC-SVG-20010904/DTD/svg10.dtd">
<svg version="1.0" xmlns="http://www.w3.org/2000/svg"
 width="306.000000pt" height="306.000000pt" viewBox="0 0 306.000000 306.000000"
 preserveAspectRatio="xMidYMid meet">
<g transform="translate(0.000000,306.000000) scale(0.100000,-0.100000)"
fill="#000000" stroke="none">
<path d="M545 3041 c-11 -3 -38 -6 -60 -6 -33 0 -45 -6 -67 -34 -17 -20 -28
-47 -29 -65 -1 -60 0 -2294 2 -2302 1 -5 1 -13 0 -19 -1 -5 -1 -131 -1 -279 0
-258 0 -270 20 -288 11 -10 32 -20 47 -21 28 -2 57 36 271 345 131 190 275
396 290 415 9 12 50 71 91 130 l74 108 291 1 c160 0 316 3 346 7 91 11 165 23
165 27 0 2 14 5 52 14 73 16 278 118 313 156 3 3 24 22 47 42 23 20 39 39 35
42 -3 3 2 6 11 6 10 0 16 6 15 13 -2 6 2 11 9 10 6 -2 15 7 19 19 3 12 16 31
28 42 11 12 22 28 24 36 2 8 11 23 19 33 9 9 12 17 7 17 -5 0 -3 4 4 9 7 4 14
14 15 22 2 8 7 21 12 29 5 8 11 24 12 35 2 10 9 22 15 27 7 4 9 10 5 14 -4 4
-2 12 3 19 5 6 12 29 16 51 3 21 7 41 9 44 5 9 18 93 19 128 0 17 3 32 6 32 3
0 4 60 3 132 0 73 -2 133 -3 133 -1 0 -4 23 -6 50 -3 28 -9 68 -15 90 -5 22
-11 49 -13 60 -2 11 -8 32 -14 46 -6 15 -8 30 -5 33 4 3 1 6 -5 6 -7 0 -12 8
-12 18 0 21 -49 118 -96 189 -35 53 -170 193 -186 193 -8 0 -21 9 -53 38 -8 7
-15 11 -15 8 0 -3 -21 7 -47 22 -27 15 -68 34 -93 42 -25 7 -50 18 -57 23 -7
5 -17 6 -22 3 -5 -4 -13 -1 -16 5 -4 5 -13 8 -21 5 -8 -3 -14 0 -14 5 0 6 -9
9 -20 6 -11 -3 -22 -1 -25 4 -4 5 -16 8 -28 8 -12 -1 -53 3 -90 8 -38 5 -79 8
-93 7 -13 -1 -24 2 -24 7 0 6 -6 7 -17 0 -9 -5 -26 -5 -38 -1 -12 5 -28 4 -35
0 -9 -5 -20 -4 -27 2 -9 7 -13 7 -13 0 0 -6 -13 -7 -35 -2 -20 4 -38 4 -41 -1
-3 -5 -13 -5 -25 1 -11 6 -19 7 -19 1 0 -5 -14 -6 -34 -1 -19 4 -40 4 -47 -1
-7 -4 -21 -3 -30 2 -11 6 -20 5 -24 -1 -4 -7 -12 -7 -24 0 -10 5 -21 6 -25 3
-8 -9 -46 -12 -46 -4 0 8 -86 5 -99 -4 -6 -3 -11 -1 -11 6 0 7 -5 8 -12 3 -15
-11 -38 -11 -55 -1 -6 4 -14 3 -17 -2 -4 -6 -18 -6 -35 -1 -17 5 -33 4 -39 -2
-6 -6 -12 -6 -16 0 -4 7 -18 7 -39 1 -17 -5 -33 -5 -35 -1 -1 5 -22 6 -46 2
-24 -3 -53 -3 -65 1 -11 5 -21 5 -21 1 0 -4 -9 -8 -20 -8 -11 0 -20 4 -20 8 0
4 -6 5 -14 2 -20 -8 -116 -10 -119 -3 -1 4 -11 4 -22 0z"/>
</g>
</svg>
